<svg xmlns="http://www.w3.org/2000/svg" xmlns:xlink="http://www.w3.org/1999/xlink" viewBox="0 0 1043.25 1106.86"><defs><linearGradient id="a" x1="521.63" x2="521.63" y2="1106.86" gradientUnits="userSpaceOnUse"><stop offset="0" stop-color="#fff"/><stop offset="1"/></linearGradient><radialGradient id="b" cx="527.04" cy="766.54" r="494.17" gradientTransform="translate(0 -249.7) scale(1 1.33)" xlink:href="#a"/></defs><title>Gryf-icon</title><path d="M520.23,1106.86c-69.54,0-212.61-65.1-212.61-65.1C219.32,979.49,194.41,952.32,188.75,924s48-14.82,46.66-32.88S178.56,825.52,165,833.45,132.15,838,132.15,838s-56.6-31.7-91.7-73.59S0,638,0,638s50.63,27.56,49.39-50.59c-1.27-80.08,15.28-117.89,29.83-181.94,19.86-87.43,52.94-165,60.63-161.83,21.88,8.89,66-18.43,64.33-39.16s-9.79-28.54-30.77-39.16-59.2,9.24-67.13,30.77-49.76-45.94-22.38-42,61.85-22.32,89.46-49,61.85-53.52,35.45-87.55,53.49-9.9,73.67-.47,33.14,13,47.36,44S403.63,47,428.17,45.7c0,0,68.47,36.67,92.06,36.11S615.08,45.7,615.08,45.7C639.63,47,699.18,92.21,713.4,61.17s27.19-34.62,47.36-44,100.07-33.55,73.67.47,7.84,60.83,35.45,87.55,62.08,53,89.46,49-14.45,63.48-22.38,42-46.15-41.38-67.13-30.77-29.1,18.43-30.77,39.16,42.45,48.05,64.33,39.16c7.69-3.13,40.77,74.4,60.63,161.83,14.55,64,31.1,101.86,29.83,181.94-1.24,78.16,49.39,50.59,49.39,50.59s-5.35,84.46-40.45,126.35S911.11,838,911.11,838s-19.25,3.4-32.83-4.53-69.06,39.62-70.44,57.69,52.32,4.58,46.66,32.88-30.57,55.47-118.87,117.74C735.63,1041.75,589.77,1106.86,520.23,1106.86Z" style="fill:#393939"/><path d="M520.23,1106.86c-69.54,0-212.61-65.1-212.61-65.1C219.32,979.49,194.41,952.32,188.75,924s48-14.82,46.66-32.88S178.56,825.52,165,833.45,132.15,838,132.15,838s-56.6-31.7-91.7-73.59S0,638,0,638s50.63,27.56,49.39-50.59c-1.27-80.08,15.28-117.89,29.83-181.94,19.86-87.43,52.94-165,60.63-161.83,21.88,8.89,66-18.43,64.33-39.16s-9.79-28.54-30.77-39.16-59.2,9.24-67.13,30.77-49.76-45.94-22.38-42,61.85-22.32,89.46-49,61.85-53.52,35.45-87.55,53.49-9.9,73.67-.47,33.14,13,47.36,44S403.63,47,428.17,45.7c0,0,68.47,36.67,92.06,36.11S615.08,45.7,615.08,45.7C639.63,47,699.18,92.21,713.4,61.17s27.19-34.62,47.36-44,100.07-33.55,73.67.47,7.84,60.83,35.45,87.55,62.08,53,89.46,49-14.45,63.48-22.38,42-46.15-41.38-67.13-30.77-29.1,18.43-30.77,39.16,42.45,48.05,64.33,39.16c7.69-3.13,40.77,74.4,60.63,161.83,14.55,64,31.1,101.86,29.83,181.94-1.24,78.16,49.39,50.59,49.39,50.59s-5.35,84.46-40.45,126.35S911.11,838,911.11,838s-19.25,3.4-32.83-4.53-69.06,39.62-70.44,57.69,52.32,4.58,46.66,32.88-30.57,55.47-118.87,117.74C735.63,1041.75,589.77,1106.86,520.23,1106.86Z" style="opacity:0.30000000000000004;fill:url(#a)"/><path d="M520.18,130.15c26.75.29,65.58-31.74,92-32.22s58.8,18.75,86.5,14.42,52.45-63.6,78.91-63.6,45.57,54.74,43.38,91.07-32.3,47.88-28.83,82.59,62.47,56.6,75.58,72.46,19.46,42.94,25.71,63.89a1412.1,1412.1,0,0,1,41.29,181.54c14.17,89.84,1,105,15.58,122.33s39-1.14,39,24.15-18,55.87-46,70.12-84.63,34.44-107.52,53-75.52,58.57-74.8,80.25,28.7,25,23.37,49.87-73.79,62-94.29,74-128.65,70.92-169.79,70.92h-.09c-41.14,0-149.29-59-169.79-70.92s-89-49.12-94.29-74,22.66-28.18,23.37-49.87-51.9-61.71-74.8-80.25-79.54-38.73-107.52-53-46-44.83-46-70.12,24.42-6.78,39-24.15,1.41-32.49,15.58-122.33A1412.1,1412.1,0,0,1,147,358.75c6.25-21,12.6-48,25.71-63.89s72.1-37.75,75.58-72.46-26.64-46.26-28.83-82.59,16.92-91.07,43.38-91.07,51.22,59.27,78.91,63.6,60.07-14.9,86.5-14.42,65.25,32.51,92,32.22" style="fill:#c9201b"/><path d="M520.18,130.15c26.75.29,65.58-31.74,92-32.22s58.8,18.75,86.5,14.42,52.45-63.6,78.91-63.6,45.57,54.74,43.38,91.07-32.3,47.88-28.83,82.59,62.47,56.6,75.58,72.46,19.46,42.94,25.71,63.89a1412.1,1412.1,0,0,1,41.29,181.54c14.17,89.84,1,105,15.58,122.33s39-1.14,39,24.15-18,55.87-46,70.12-84.63,34.44-107.52,53-75.52,58.57-74.8,80.25,28.7,25,23.37,49.87-73.79,62-94.29,74-128.65,70.92-169.79,70.92h-.09c-41.14,0-149.29-59-169.79-70.92s-89-49.12-94.29-74,22.66-28.18,23.37-49.87-51.9-61.71-74.8-80.25-79.54-38.73-107.52-53-46-44.83-46-70.12,24.42-6.78,39-24.15,1.41-32.49,15.58-122.33A1412.1,1412.1,0,0,1,147,358.75c6.25-21,12.6-48,25.71-63.89s72.1-37.75,75.58-72.46-26.64-46.26-28.83-82.59,16.92-91.07,43.38-91.07,51.22,59.27,78.91,63.6,60.07-14.9,86.5-14.42,65.25,32.51,92,32.22" style="opacity:0.28;fill:url(#b)"/><path d="M728.05,502,714.38,485.6q-10.94-54.68-41-71.09-183.21-106.64-250.2,19.14T404,663.34q47.85,103.91,222.85,98.44V704.35q0-79.29-79.3-62.89l-10.94-21.87H717.12l-10.94,13.67Q657,630.53,648.76,660.6l2.73,128.52q-183.21-5.47-266.6-58.79t-67-195.51Q334.3,392.64,471,361.19t227,39.65l16.41-60.16L728.05,327Z" style="fill:#d69030"/><path d="M652,789.64l-.53,0C529.81,786,440,766.18,384.62,730.75,356.85,713,337.12,687.5,326,655s-14-72.94-8.57-120.19S338.54,448.87,364,420s61.44-48.83,106.9-59.29,87.58-12.4,125.29-5.81A226.05,226.05,0,0,1,697.69,400l16.24-59.56,14.62-14.62V503.39l-14.64-17.56,0-.12c-7.23-36.14-20.95-59.94-40.76-70.75-72.59-42.25-132.2-57.18-177.18-44.38-30.2,8.59-54.53,29.89-72.34,63.32C401.42,475.56,388.56,516,385.39,554a215,215,0,0,0,19.1,109.12c15.82,34.36,42.53,60,79.38,76.32s84.75,23.61,142.51,21.85V704.35c0-25.87-6.47-44.26-19.23-54.65-13-10.61-33-13.22-59.47-7.75l-.38.08-11.47-22.94H718.16l-11.75,14.69h-.26C673.8,632,654.66,641,649.26,660.67ZM550.61,352.08c-25.08,0-51.66,3.2-79.47,9.6-45.26,10.41-81,30.25-106.38,59s-40.93,67.16-46.36,114.23-2.57,87.39,8.52,119.75,30.67,57.65,58.24,75.28c55.17,35.28,144.61,55,265.82,58.69l-2.72-128.06,0-.07c5.5-20.16,24.9-29.49,57.67-27.73l10.13-12.66H537.46l10.4,20.81c26.55-5.43,46.71-2.73,59.92,8,13,10.59,19.6,29.24,19.6,55.43v57.91l-.48,0c-58.14,1.82-106.4-5.56-143.43-21.92s-64-42.22-79.89-76.81a216,216,0,0,1-19.19-109.62c3.18-38.17,16.08-78.71,38.34-120.51,17.94-33.68,42.48-55.15,72.94-63.81,45.26-12.87,105.12,2.09,177.94,44.48,20.05,10.94,33.93,34.93,41.23,71.3l12.71,15.25V328.22l-12.72,12.72L698.26,401.7l-.59-.47A225.08,225.08,0,0,0,596,355.87,263.81,263.81,0,0,0,550.61,352.08Z" style="fill:#a94e19"/></svg>