<svg xmlns="http://www.w3.org/2000/svg" xmlns:xlink="http://www.w3.org/1999/xlink" viewBox="0 0 1043.25 1106.86"><defs><linearGradient id="a" x1="521.63" x2="521.63" y2="1106.86" gradientUnits="userSpaceOnUse"><stop offset="0" stop-color="#fff"/><stop offset="1"/></linearGradient><radialGradient id="b" cx="527.04" cy="761.9" r="494.17" gradientTransform="translate(0 -248.19) scale(1 1.33)" xlink:href="#a"/></defs><title>Huff-icon</title><path d="M520.23,1106.86c-69.54,0-212.61-65.1-212.61-65.1C219.32,979.49,194.41,952.32,188.75,924s48-14.82,46.66-32.88S178.56,825.52,165,833.45,132.15,838,132.15,838s-56.6-31.7-91.7-73.59S0,638,0,638s50.63,27.56,49.39-50.59c-1.27-80.08,15.28-117.89,29.83-181.94,19.86-87.43,52.94-165,60.63-161.83,21.88,8.89,66-18.43,64.33-39.16s-9.79-28.54-30.77-39.16-59.2,9.24-67.13,30.77-49.76-45.94-22.38-42,61.85-22.32,89.46-49,61.85-53.52,35.45-87.55,53.49-9.9,73.67-.47,33.14,13,47.36,44S403.63,47,428.17,45.7c0,0,68.47,36.67,92.06,36.11S615.08,45.7,615.08,45.7C639.63,47,699.18,92.21,713.4,61.17s27.19-34.62,47.36-44,100.07-33.55,73.67.47,7.84,60.83,35.45,87.55,62.08,53,89.46,49-14.45,63.48-22.38,42-46.15-41.38-67.13-30.77-29.1,18.43-30.77,39.16,42.45,48.05,64.33,39.16c7.69-3.13,40.77,74.4,60.63,161.83,14.55,64,31.1,101.86,29.83,181.94-1.24,78.16,49.39,50.59,49.39,50.59s-5.35,84.46-40.45,126.35S911.11,838,911.11,838s-19.25,3.4-32.83-4.53-69.06,39.62-70.44,57.69,52.32,4.58,46.66,32.88-30.57,55.47-118.87,117.74C735.63,1041.75,589.77,1106.86,520.23,1106.86Z" style="fill:#393939"/><path d="M520.23,1106.86c-69.54,0-212.61-65.1-212.61-65.1C219.32,979.49,194.41,952.32,188.75,924s48-14.82,46.66-32.88S178.56,825.52,165,833.45,132.15,838,132.15,838s-56.6-31.7-91.7-73.59S0,638,0,638s50.63,27.56,49.39-50.59c-1.27-80.08,15.28-117.89,29.83-181.94,19.86-87.43,52.94-165,60.63-161.83,21.88,8.89,66-18.43,64.33-39.16s-9.79-28.54-30.77-39.16-59.2,9.24-67.13,30.77-49.76-45.94-22.38-42,61.85-22.32,89.46-49,61.85-53.52,35.45-87.55,53.49-9.9,73.67-.47,33.14,13,47.36,44S403.63,47,428.17,45.7c0,0,68.47,36.67,92.06,36.11S615.08,45.7,615.08,45.7C639.63,47,699.18,92.21,713.4,61.17s27.19-34.62,47.36-44,100.07-33.55,73.67.47,7.84,60.83,35.45,87.55,62.08,53,89.46,49-14.45,63.48-22.38,42-46.15-41.38-67.13-30.77-29.1,18.43-30.77,39.16,42.45,48.05,64.33,39.16c7.69-3.13,40.77,74.4,60.63,161.83,14.55,64,31.1,101.86,29.83,181.94-1.24,78.16,49.39,50.59,49.39,50.59s-5.35,84.46-40.45,126.35S911.11,838,911.11,838s-19.25,3.4-32.83-4.53-69.06,39.62-70.44,57.69,52.32,4.58,46.66,32.88-30.57,55.47-118.87,117.74C735.63,1041.75,589.77,1106.86,520.23,1106.86Z" style="opacity:0.30000000000000004;fill:url(#a)"/><path d="M520.18,125.51c26.75.29,65.58-31.74,92-32.22S671,112,698.68,107.7s52.45-63.6,78.91-63.6S823.16,98.84,821,135.18s-32.3,47.88-28.83,82.59,62.47,56.6,75.58,72.46,19.46,42.94,25.71,63.89a1412.1,1412.1,0,0,1,41.29,181.54c14.17,89.84,1,105,15.58,122.33s39-1.14,39,24.15-18,55.87-46,70.12-84.63,34.44-107.52,53-75.52,58.57-74.8,80.25,28.7,25,23.37,49.87-73.79,62-94.29,74-128.65,70.92-169.79,70.92h-.09c-41.14,0-149.29-59-169.79-70.92s-89-49.12-94.29-74,22.66-28.18,23.37-49.87-51.9-61.71-74.8-80.25-79.54-38.73-107.52-53-46-44.83-46-70.12,24.42-6.78,39-24.15,1.41-32.49,15.58-122.33A1412.1,1412.1,0,0,1,147,354.12c6.25-21,12.6-48,25.71-63.89s72.1-37.75,75.58-72.46-26.64-46.26-28.83-82.59S236.4,44.1,262.87,44.1s51.22,59.27,78.91,63.6,60.07-14.9,86.5-14.42,65.25,32.51,92,32.22" style="fill:#cfa30c"/><path d="M520.18,125.51c26.75.29,65.58-31.74,92-32.22S671,112,698.68,107.7s52.45-63.6,78.91-63.6S823.16,98.84,821,135.18s-32.3,47.88-28.83,82.59,62.47,56.6,75.58,72.46,19.46,42.94,25.71,63.89a1412.1,1412.1,0,0,1,41.29,181.54c14.17,89.84,1,105,15.58,122.33s39-1.14,39,24.15-18,55.87-46,70.12-84.63,34.44-107.52,53-75.52,58.57-74.8,80.25,28.7,25,23.37,49.87-73.79,62-94.29,74-128.65,70.92-169.79,70.92h-.09c-41.14,0-149.29-59-169.79-70.92s-89-49.12-94.29-74,22.66-28.18,23.37-49.87-51.9-61.71-74.8-80.25-79.54-38.73-107.52-53-46-44.83-46-70.12,24.42-6.78,39-24.15,1.41-32.49,15.58-122.33A1412.1,1412.1,0,0,1,147,354.12c6.25-21,12.6-48,25.71-63.89s72.1-37.75,75.58-72.46-26.64-46.26-28.83-82.59S236.4,44.1,262.87,44.1s51.22,59.27,78.91,63.6,60.07-14.9,86.5-14.42,65.25,32.51,92,32.22" style="opacity:0.28;fill:url(#b)"/><path d="M259.74,345.79H464.82l-2.73,16.41q-71.1,0-65.62,27.34V509.85L659,512.58l-8.2-221.48q0-24.61-98.44-19.14l-8.2-13.67h216v10.94q-79.3,0-73.83,21.88L700,739.54q16.41,16.41,79.3,16.41l5.47,10.94-210.55,2.73,2.73-13.67q76.56,0,87.5-19.14L659,545.4l-16.41-8.2-243.36,5.47,2.73,177.73q2.73,27.35,57.42,30.08v10.94l-185.94-2.73-2.73-8.2q46.48,0,57.42-19.14l-2.73-341.8q-13.67-24.61-54.69-30.08Z" style="fill:#1d1c18"/><path d="M573.58,770.12l2.94-14.68h.41c50.45,0,79.71-6.31,87-18.77l-5.46-191-16-8L399.7,543.15l2.73,177.24c1.78,17.82,20.94,27.79,56.95,29.59l.47,0v11.92h-.51l-186.29-2.74L270,750h.69c30.56,0,49.71-6.32,56.92-18.77l-2.73-341.53c-9-16.12-27.27-26.11-54.25-29.71l-.2,0-.13-.16L258.7,345.29H465.41l-2.9,17.41h-.42c-33.73,0-54.67,4.69-62.24,13.93-2.91,3.55-3.88,7.86-2.89,12.82V509.35l261.48,2.72-8.18-221a11.12,11.12,0,0,0-3.77-8.29c-10.33-9.78-42-13.27-94.14-10.37l-.3,0-8.81-14.69h217.4v11.94h-.5c-40.81,0-64.93,4.4-71.7,13.07a9,9,0,0,0-1.64,8.18v.11l13.67,448.24c10.88,10.7,37.39,16.12,78.8,16.12h.31l6,11.93h-.8Zm3.76-13.68-2.53,12.66,209.13-2.72-5-9.95c-41.69,0-68.38-5.6-79.34-16.55l-.14-.14v-.2L685.81,291.17a10,10,0,0,1,1.84-9c7-9,30.59-13.42,72-13.46v-9.94H545l7.59,12.66c52.24-2.88,84.06.71,94.58,10.66a12.07,12.07,0,0,1,4.08,9l8.22,222H659l-263-2.74V389.54A15.6,15.6,0,0,1,399.07,376c7.74-9.44,28.8-14.25,62.59-14.29l2.57-15.41H260.78L270.94,359c27.27,3.68,45.73,13.87,54.86,30.3l.06.11v.13l2.74,341.93-.07.12c-7.3,12.77-26.53,19.29-57.16,19.39l2.4,7.21,185.08,2.72v-10c-36.27-1.89-55.59-12.15-57.42-30.5l-2.75-178.27h.5l243.48-5.47,16.79,8.39v.3l5.47,191.55-.07.12C657.43,750.06,628.8,756.41,577.34,756.44Z" style="fill:#fff"/></svg>