<svg xmlns="http://www.w3.org/2000/svg" xmlns:xlink="http://www.w3.org/1999/xlink" viewBox="0 0 1043.25 1106.86"><defs><linearGradient id="a" x1="521.63" x2="521.63" y2="1106.86" gradientUnits="userSpaceOnUse"><stop offset="0" stop-color="#fff"/><stop offset="1"/></linearGradient><radialGradient id="b" cx="527.04" cy="761.9" r="494.17" gradientTransform="translate(0 -248.19) scale(1 1.33)" xlink:href="#a"/></defs><title>Raven-icon</title><path d="M520.23,1106.86c-69.54,0-212.61-65.1-212.61-65.1C219.32,979.49,194.41,952.32,188.75,924s48-14.82,46.66-32.88S178.56,825.52,165,833.45,132.15,838,132.15,838s-56.6-31.7-91.7-73.59S0,638,0,638s50.63,27.56,49.39-50.59c-1.27-80.08,15.28-117.89,29.83-181.94,19.86-87.43,52.94-165,60.63-161.83,21.88,8.89,66-18.43,64.33-39.16s-9.79-28.54-30.77-39.16-59.2,9.24-67.13,30.77-49.76-45.94-22.38-42,61.85-22.32,89.46-49,61.85-53.52,35.45-87.55,53.49-9.9,73.67-.47,33.14,13,47.36,44S403.63,47,428.17,45.7c0,0,68.47,36.67,92.06,36.11S615.08,45.7,615.08,45.7C639.63,47,699.18,92.21,713.4,61.17s27.19-34.62,47.36-44,100.07-33.55,73.67.47,7.84,60.83,35.45,87.55,62.08,53,89.46,49-14.45,63.48-22.38,42-46.15-41.38-67.13-30.77-29.1,18.43-30.77,39.16,42.45,48.05,64.33,39.16c7.69-3.13,40.77,74.4,60.63,161.83,14.55,64,31.1,101.86,29.83,181.94-1.24,78.16,49.39,50.59,49.39,50.59s-5.35,84.46-40.45,126.35S911.11,838,911.11,838s-19.25,3.4-32.83-4.53-69.06,39.62-70.44,57.69,52.32,4.58,46.66,32.88-30.57,55.47-118.87,117.74C735.63,1041.75,589.77,1106.86,520.23,1106.86Z" style="fill:#393939"/><path d="M520.23,1106.86c-69.54,0-212.61-65.1-212.61-65.1C219.32,979.49,194.41,952.32,188.75,924s48-14.82,46.66-32.88S178.56,825.52,165,833.45,132.15,838,132.15,838s-56.6-31.7-91.7-73.59S0,638,0,638s50.63,27.56,49.39-50.59c-1.27-80.08,15.28-117.89,29.83-181.94,19.86-87.43,52.94-165,60.63-161.83,21.88,8.89,66-18.43,64.33-39.16s-9.79-28.54-30.77-39.16-59.2,9.24-67.13,30.77-49.76-45.94-22.38-42,61.85-22.32,89.46-49,61.85-53.52,35.45-87.55,53.49-9.9,73.67-.47,33.14,13,47.36,44S403.63,47,428.17,45.7c0,0,68.47,36.67,92.06,36.11S615.08,45.7,615.08,45.7C639.63,47,699.18,92.21,713.4,61.17s27.19-34.62,47.36-44,100.07-33.55,73.67.47,7.84,60.83,35.45,87.55,62.08,53,89.46,49-14.45,63.48-22.38,42-46.15-41.38-67.13-30.77-29.1,18.43-30.77,39.16,42.45,48.05,64.33,39.16c7.69-3.13,40.77,74.4,60.63,161.83,14.55,64,31.1,101.86,29.83,181.94-1.24,78.16,49.39,50.59,49.39,50.59s-5.35,84.46-40.45,126.35S911.11,838,911.11,838s-19.25,3.4-32.83-4.53-69.06,39.62-70.44,57.69,52.32,4.58,46.66,32.88-30.57,55.47-118.87,117.74C735.63,1041.75,589.77,1106.86,520.23,1106.86Z" style="opacity:0.30000000000000004;fill:url(#a)"/><path d="M520.18,125.51c26.75.29,65.58-31.74,92-32.22S671,112,698.68,107.7s52.45-63.6,78.91-63.6S823.16,98.84,821,135.18s-32.3,47.88-28.83,82.59,62.47,56.6,75.58,72.46,19.46,42.94,25.71,63.89a1412.1,1412.1,0,0,1,41.29,181.54c14.17,89.84,1,105,15.58,122.33s39-1.14,39,24.15-18,55.87-46,70.12-84.63,34.44-107.52,53-75.52,58.57-74.8,80.25,28.7,25,23.37,49.87-73.79,62-94.29,74-128.65,70.92-169.79,70.92h-.09c-41.14,0-149.29-59-169.79-70.92s-89-49.12-94.29-74,22.66-28.18,23.37-49.87-51.9-61.71-74.8-80.25-79.54-38.73-107.52-53-46-44.83-46-70.12,24.42-6.78,39-24.15,1.41-32.49,15.58-122.33A1412.1,1412.1,0,0,1,147,354.12c6.25-21,12.6-48,25.71-63.89s72.1-37.75,75.58-72.46-26.64-46.26-28.83-82.59S236.4,44.1,262.87,44.1s51.22,59.27,78.91,63.6,60.07-14.9,86.5-14.42,65.25,32.51,92,32.22" style="fill:#045779"/><path d="M520.18,125.51c26.75.29,65.58-31.74,92-32.22S671,112,698.68,107.7s52.45-63.6,78.91-63.6S823.16,98.84,821,135.18s-32.3,47.88-28.83,82.59,62.47,56.6,75.58,72.46,19.46,42.94,25.71,63.89a1412.1,1412.1,0,0,1,41.29,181.54c14.17,89.84,1,105,15.58,122.33s39-1.14,39,24.15-18,55.87-46,70.12-84.63,34.44-107.52,53-75.52,58.57-74.8,80.25,28.7,25,23.37,49.87-73.79,62-94.29,74-128.65,70.92-169.79,70.92h-.09c-41.14,0-149.29-59-169.79-70.92s-89-49.12-94.29-74,22.66-28.18,23.37-49.87-51.9-61.71-74.8-80.25-79.54-38.73-107.52-53-46-44.83-46-70.12,24.42-6.78,39-24.15,1.41-32.49,15.58-122.33A1412.1,1412.1,0,0,1,147,354.12c6.25-21,12.6-48,25.71-63.89s72.1-37.75,75.58-72.46-26.64-46.26-28.83-82.59S236.4,44.1,262.87,44.1s51.22,59.27,78.91,63.6,60.07-14.9,86.5-14.42,65.25,32.51,92,32.22" style="opacity:0.28;fill:url(#b)"/><path d="M303.59,326.43Q414,340.1,631.72,329.16,793,367.45,769.8,476.82T598.9,621.74l98.44,161.33q8.2,13.67,54.69,13.67l5.47,13.67H549.69l8.2-10.94q54.68-5.47,62.89-16.41L547,640.88q-27.35-16.41-2.73-27.34,172.27-49.22,147.66-160T489.53,349.67q-32.81-4.1-35.55,17.77V706.51q5.46,35.55,71.09,32.81l5.47,10.94H289.92l5.47-10.94q68.36,5.47,84.77-32.81V370.18q-8.2-27.34-65.62-24.61Z" style="fill:#b38c63"/><path d="M759,811.41H547.69l9.67-12.89.44,0c35.17-3.52,56-8.74,61.8-15.53l-73.4-141.36c-10.16-6.14-14.94-11.68-14.62-17,.28-4.55,4.28-8.48,12.24-12l.13,0c57-16.28,98.22-37.92,122.59-64.32S699,490.2,690.9,453.8s-29.08-63.58-62.37-80.67-80.17-24.71-139-22.45h-.16c-10.69-1.34-19-.56-24.72,2.3s-8.81,7.58-9.7,14.55V706.43c3.58,23,27.14,33.68,70.05,31.89l.65,0,6.48,13H288.3l6.49-13,.67.05c44.77,3.58,72.93-7.19,83.69-32v-336c-5.37-17.55-27.1-25.55-64.58-23.76l-.61,0-12.23-21.41,2,.25c73.21,9.07,183.55,10,328,2.73h.14l.14,0c53.72,12.75,92.64,31.71,115.68,56.35S778.56,440.4,770.78,477s-26.16,67.29-54.68,91.47c-28.21,23.92-67.11,42.05-115.63,53.89L698.2,782.55c5.26,8.76,23.37,13.19,53.83,13.19h.68Zm-207.29-2H756l-4.67-11.67c-31.24-.07-49.19-4.7-54.87-14.16L597.34,621.09l1.33-.32C647.51,609,686.58,590.92,714.81,567s46.35-54.3,54-90.37,0-66.47-22.65-90.71-61.29-43.08-114.55-55.73c-143.16,7.19-252.87,6.35-326.17-2.51l9.64,16.88c38.25-1.72,60.46,6.81,66,25.35l0,.29V706.71l-.08.19C371.36,729.56,348,741,311.47,741q-7.39,0-15.49-.62l-4.44,8.89H528.93l-4.46-8.91c-43.74,1.71-67.78-9.63-71.48-33.69V367.32c1-7.61,4.58-13,10.8-16.15,6.06-3,14.74-3.87,25.78-2.5,59.1-2.27,106.16,5.36,139.87,22.67s55.18,45,63.41,82-.12,69.47-24.85,96.26-66.14,48.48-123.44,64.86c-7.07,3.15-10.77,6.61-11,10.28-.27,4.43,4.41,9.57,13.9,15.26l.24.15.13.25L622,783.17l-.38.5c-5.67,7.56-26.33,13-63.15,16.76Z" style="fill:#0397bf"/></svg>