<svg xmlns="http://www.w3.org/2000/svg" xmlns:xlink="http://www.w3.org/1999/xlink" viewBox="0 0 1043.25 1106.86"><defs><linearGradient id="a" x1="521.63" x2="521.63" y2="1106.86" gradientUnits="userSpaceOnUse"><stop offset="0" stop-color="#fff"/><stop offset="1"/></linearGradient><radialGradient id="b" cx="527.04" cy="761.9" r="494.17" gradientTransform="translate(0 -248.19) scale(1 1.33)" xlink:href="#a"/></defs><title>Slyth-icon</title><path d="M520.23,1106.86c-69.54,0-212.61-65.1-212.61-65.1C219.32,979.49,194.41,952.32,188.75,924s48-14.82,46.66-32.88S178.56,825.52,165,833.45,132.15,838,132.15,838s-56.6-31.7-91.7-73.59S0,638,0,638s50.63,27.56,49.39-50.59c-1.27-80.08,15.28-117.89,29.83-181.94,19.86-87.43,52.94-165,60.63-161.83,21.88,8.89,66-18.43,64.33-39.16s-9.79-28.54-30.77-39.16-59.2,9.24-67.13,30.77-49.76-45.94-22.38-42,61.85-22.32,89.46-49,61.85-53.52,35.45-87.55,53.49-9.9,73.67-.47,33.14,13,47.36,44S403.63,47,428.17,45.7c0,0,68.47,36.67,92.06,36.11S615.08,45.7,615.08,45.7C639.63,47,699.18,92.21,713.4,61.17s27.19-34.62,47.36-44,100.07-33.55,73.67.47,7.84,60.83,35.45,87.55,62.08,53,89.46,49-14.45,63.48-22.38,42-46.15-41.38-67.13-30.77-29.1,18.43-30.77,39.16,42.45,48.05,64.33,39.16c7.69-3.13,40.77,74.4,60.63,161.83,14.55,64,31.1,101.86,29.83,181.94-1.24,78.16,49.39,50.59,49.39,50.59s-5.35,84.46-40.45,126.35S911.11,838,911.11,838s-19.25,3.4-32.83-4.53-69.06,39.62-70.44,57.69,52.32,4.58,46.66,32.88-30.57,55.47-118.87,117.74C735.63,1041.75,589.77,1106.86,520.23,1106.86Z" style="fill:#393939"/><path d="M520.23,1106.86c-69.54,0-212.61-65.1-212.61-65.1C219.32,979.49,194.41,952.32,188.75,924s48-14.82,46.66-32.88S178.56,825.52,165,833.45,132.15,838,132.15,838s-56.6-31.7-91.7-73.59S0,638,0,638s50.63,27.56,49.39-50.59c-1.27-80.08,15.28-117.89,29.83-181.94,19.86-87.43,52.94-165,60.63-161.83,21.88,8.89,66-18.43,64.33-39.16s-9.79-28.54-30.77-39.16-59.2,9.24-67.13,30.77-49.76-45.94-22.38-42,61.85-22.32,89.46-49,61.85-53.52,35.45-87.55,53.49-9.9,73.67-.47,33.14,13,47.36,44S403.63,47,428.17,45.7c0,0,68.47,36.67,92.06,36.11S615.08,45.7,615.08,45.7C639.63,47,699.18,92.21,713.4,61.17s27.19-34.62,47.36-44,100.07-33.55,73.67.47,7.84,60.83,35.45,87.55,62.08,53,89.46,49-14.45,63.48-22.38,42-46.15-41.38-67.13-30.77-29.1,18.43-30.77,39.16,42.45,48.05,64.33,39.16c7.69-3.13,40.77,74.4,60.63,161.83,14.55,64,31.1,101.86,29.83,181.94-1.24,78.16,49.39,50.59,49.39,50.59s-5.35,84.46-40.45,126.35S911.11,838,911.11,838s-19.25,3.4-32.83-4.53-69.06,39.62-70.44,57.69,52.32,4.58,46.66,32.88-30.57,55.47-118.87,117.74C735.63,1041.75,589.77,1106.86,520.23,1106.86Z" style="opacity:0.30000000000000004;fill:url(#a)"/><path d="M520.18,125.51c26.75.29,65.58-31.74,92-32.22S671,112,698.68,107.7s52.45-63.6,78.91-63.6S823.16,98.84,821,135.18s-32.3,47.88-28.83,82.59,62.47,56.6,75.58,72.46,19.46,42.94,25.71,63.89a1412.1,1412.1,0,0,1,41.29,181.54c14.17,89.84,1,105,15.58,122.33s39-1.14,39,24.15-18,55.87-46,70.12-84.63,34.44-107.52,53-75.52,58.57-74.8,80.25,28.7,25,23.37,49.87-73.79,62-94.29,74-128.65,70.92-169.79,70.92h-.09c-41.14,0-149.29-59-169.79-70.92s-89-49.12-94.29-74,22.66-28.18,23.37-49.87-51.9-61.71-74.8-80.25-79.54-38.73-107.52-53-46-44.83-46-70.12,24.42-6.78,39-24.15,1.41-32.49,15.58-122.33A1412.1,1412.1,0,0,1,147,354.12c6.25-21,12.6-48,25.71-63.89s72.1-37.75,75.58-72.46-26.64-46.26-28.83-82.59S236.4,44.1,262.87,44.1s51.22,59.27,78.91,63.6,60.07-14.9,86.5-14.42,65.25,32.51,92,32.22" style="fill:#134512"/><path d="M520.18,125.51c26.75.29,65.58-31.74,92-32.22S671,112,698.68,107.7s52.45-63.6,78.91-63.6S823.16,98.84,821,135.18s-32.3,47.88-28.83,82.59,62.47,56.6,75.58,72.46,19.46,42.94,25.71,63.89a1412.1,1412.1,0,0,1,41.29,181.54c14.17,89.84,1,105,15.58,122.33s39-1.14,39,24.15-18,55.87-46,70.12-84.63,34.44-107.52,53-75.52,58.57-74.8,80.25,28.7,25,23.37,49.87-73.79,62-94.29,74-128.65,70.92-169.79,70.92h-.09c-41.14,0-149.29-59-169.79-70.92s-89-49.12-94.29-74,22.66-28.18,23.37-49.87-51.9-61.71-74.8-80.25-79.54-38.73-107.52-53-46-44.83-46-70.12,24.42-6.78,39-24.15,1.41-32.49,15.58-122.33A1412.1,1412.1,0,0,1,147,354.12c6.25-21,12.6-48,25.71-63.89s72.1-37.75,75.58-72.46-26.64-46.26-28.83-82.59S236.4,44.1,262.87,44.1s51.22,59.27,78.91,63.6,60.07-14.9,86.5-14.42,65.25,32.51,92,32.22" style="opacity:0.28;fill:url(#b)"/><path d="M628.27,469l-10.94-8.2Q614.59,346,581.78,340.52,472.4,310.44,442.33,384.27t97.07,97.07q127.15,23.25,125.78,146.29T551.71,764.34q-112.11,13.67-150.39-41-19.15,0-19.14,79.3L368.5,813.56Q379.44,696,365.77,572.94l13.67,8.2Q384.9,682.32,434.13,722t112.11,13.67q62.89-26,53.32-101.17T483.35,540.13Q376.71,521,394.48,411.61T570.85,307.7q41,24.61,52-57.42l10.94-5.47Q611.86,351.45,628.27,469Z" style="fill:#228920"/><path d="M367.9,814.69l.11-1.17c7.25-78,6.33-158.9-2.73-240.52l-.11-1,14.77,8.86v.26c3.62,67,22,114.24,54.5,140.46s70.05,30.76,111.6,13.6c20.75-8.57,35.73-21.37,44.52-38.05s11.65-37.75,8.49-62.6-14.48-45.29-33.66-60.85S518.55,547,483.26,540.62c-35.52-6.37-61-20.47-75.86-41.91S388.07,448,394,411.53s23.82-63.7,53.22-81,70.94-25.13,123.66-23.31H571l.11.07c9.81,5.89,18.41,7.13,25.53,3.7,12.45-6,21.09-26.44,25.67-60.76l0-.26,12.09-6-.21,1c-14.5,70.7-16.34,146.08-5.46,224l.17,1.19-12.09-9.07v-.24C615,384.91,603.2,344.59,581.7,341c-36.25-10-66.28-11.35-89.32-4.12s-39.67,23.21-49.59,47.56c-7.55,18.54-7.59,34.87-.09,48.54,12.2,22.24,44.76,38.34,96.79,47.85,42.3,7.73,74.37,24,95.31,48.36s31.34,57.48,30.88,98.43-10.27,73.25-29.17,96-47.42,36.64-84.75,41.19c-74.44,9.08-125.15-4.72-150.71-41-12.2.37-18.38,26.87-18.38,78.79v.24Zm-1.52-240.8c8.92,80.94,9.84,161.19,2.73,238.55l12.57-10.05c0-53.54,6.44-79.56,19.64-79.56h.26l.15.21c25.28,36.12,75.72,49.85,149.92,40.81,37.06-4.52,65.36-18.26,84.1-40.84s28.49-54.68,28.94-95.39S654.82,554,634,529.86s-52.66-40.34-94.73-48C487,472.26,454.17,456,441.82,433.47c-7.65-13.94-7.63-30.56,0-49.4,10-24.64,26.93-40.83,50.21-48.14S545.53,330,581.92,340c11,1.84,19.68,13,25.64,33.15,5.9,20,9.35,49.36,10.27,87.39l9.78,7.34c-10.66-77.29-8.83-152,5.43-222.19l-9.78,4.89c-4.63,34.52-13.44,55.13-26.19,61.26-7.43,3.58-16.3,2.34-26.37-3.68-52.47-1.79-93.84,6-123,23.18S400.84,375.56,395,411.69s-1.42,65.24,13.25,86.45,40,35.16,75.21,41.49c35.46,6.37,63.25,17.56,82.6,33.26s30.83,36.43,34,61.5c6.38,50.15-11.66,84.37-53.63,101.7s-79.8,12.68-112.61-13.74S382.62,648.57,379,581.43Z" style="fill:#35bf34"/></svg>